<svg xmlns="http://www.w3.org/2000/svg" viewBox="0 0 64 64" fill="none">
  <rect width="64" height="64" rx="12" fill="#0f172a"/>
  <path d="M36.8 11.2c-2.1 0-4 0.8-5.4 2.2-1.4 1.4-2.2 3.3-2.2 5.4 0 1.4 0.4 2.6 0.9 3.6L19 33.1c-1.9 1.9-2 4.8-0.3 6.6l7.5 7.5c1.8 1.8 4.7 1.6 6.6-0.3l10.7-10.7c1 0.5 2.2 0.9 3.6 0.9 2.1 0 4-0.8 5.4-2.2 1.4-1.4 2.2-3.3 2.2-5.4 0-2.1-0.8-4-2.2-5.4-1.4-1.4-3.3-2.2-5.4-2.2-2.1 0-4 0.8-5.4 2.2-1.4 1.4-2.2 3.3-2.2 5.4 0 1.4 0.3 2.6 0.9 3.6l-3.2 3.2-4.1-4.1 3.2-3.2c1 0.5 2.2 0.9 3.6 0.9 2.1 0 4-0.8 5.4-2.2 1.4-1.4 2.2-3.3 2.2-5.4 0-2.1-0.8-4-2.2-5.4-1.4-1.4-3.3-2.2-5.4-2.2Zm-7.9 28.9-2.4 2.4-4.1-4.1 2.4-2.4 4.1 4.1Z" fill="#f8fafc"/>
  <path d="M24.2 45.8c-0.7 0.7-1.8 0.7-2.5 0l-3.5-3.5c-0.7-0.7-0.7-1.8 0-2.5l6-6 6 6-6 6Z" fill="#cbd5f5"/>
</svg>
